<?xml version="1.0" encoding="utf-8"?>
<!-- Generator: Adobe Illustrator 23.0.4, SVG Export Plug-In . SVG Version: 6.00 Build 0)  -->
<svg version="1.1" id="Layer_1" xmlns="http://www.w3.org/2000/svg" xmlns:xlink="http://www.w3.org/1999/xlink" x="0px" y="0px"
	 viewBox="0 0 294.91 119.54" style="enable-background:new 0 0 294.91 119.54;" xml:space="preserve">
<style type="text/css">
	.st0{fill:#0277B5;}
	.st1{fill:#F9F9F9;}
</style>
<path class="st0" d="M284.95,119.54H9.96c-5.5,0-9.96-4.46-9.96-9.96V9.96C0,4.46,4.46,0,9.96,0h274.98c5.5,0,9.96,4.46,9.96,9.96
	v99.61C294.91,115.08,290.45,119.54,284.95,119.54z"/>
<g>
	<path class="st1" d="M21.53,96.54v-76.3h10.23V86.5h8.48v10.04H21.53z"/>
	<path class="st1" d="M57.2,25.89c0,1.5-0.55,2.79-1.66,3.9c-1.11,1.11-2.4,1.66-3.9,1.66c-1.5,0-2.79-0.55-3.9-1.66
		c-1.11-1.1-1.66-2.4-1.66-3.9c0-1.49,0.55-2.79,1.66-3.9c1.1-1.1,2.4-1.66,3.9-1.66c1.49,0,2.79,0.55,3.9,1.66
		C56.65,23.1,57.2,24.4,57.2,25.89z M46.58,96.54v-61.1h9.94v61.1H46.58z"/>
	<path class="st1" d="M78.05,96.54V49.08c0.06-0.97,0.03-1.82-0.1-2.53c-0.13-0.65-0.36-1.23-0.68-1.75
		c-0.33-0.52-0.85-0.78-1.56-0.78c-0.78,0-1.43,0.33-1.95,0.97c-0.52,0.65-0.78,1.33-0.78,2.05v49.5h-9.94v-61.1h9.94v3.9
		c0.39-1.23,1.19-2.19,2.39-2.87c1.2-0.68,2.42-1.02,3.65-1.02c2.66,0,4.84,1.09,6.53,3.27c1.69,2.18,2.53,5.03,2.53,8.54v49.29
		H78.05z"/>
	<path class="st1" d="M111.96,65.65l6.63,30.89h-9.36l-4.77-29.04l-0.49-0.58v29.62H93.94v-76.3h9.94V63.9l0.49,0.19l5.94-28.55
		h9.26L111.96,65.65z"/>
	<path class="st1" d="M149.97,85.82c0,1.5-0.26,2.92-0.78,4.29c-0.52,1.36-1.3,2.58-2.34,3.65c-1.04,1.07-2.34,1.93-3.9,2.58
		c-1.56,0.65-3.38,0.97-5.46,0.97c-3.7,0-6.64-1.19-8.82-3.56c-2.18-2.37-3.26-5.38-3.26-9.01V47.43c0-3.64,1.09-6.64,3.26-9.01
		c2.18-2.37,5.12-3.56,8.82-3.56c2.08,0,3.9,0.33,5.46,0.97c1.56,0.65,2.86,1.51,3.9,2.58c1.04,1.07,1.82,2.31,2.34,3.7
		c0.52,1.4,0.78,2.81,0.78,4.24v22.71h-15.01v15.01c0,0.78,0.13,1.46,0.39,2.05c0.2,0.52,0.47,0.97,0.83,1.36
		c0.36,0.39,0.89,0.58,1.61,0.58c0.71,0,1.27-0.2,1.66-0.58c0.39-0.39,0.65-0.84,0.78-1.36c0.2-0.58,0.29-1.27,0.29-2.05v-7.31h9.45
		V85.82z M140.52,48.11c0-0.71-0.1-1.36-0.29-1.95c-0.13-0.52-0.39-0.99-0.78-1.41c-0.39-0.42-0.94-0.63-1.66-0.63
		c-0.72,0-1.27,0.21-1.66,0.63c-0.39,0.42-0.65,0.89-0.78,1.41c-0.26,0.65-0.36,1.33-0.29,2.05v12.67h5.36L140.52,48.11z"/>
	<path class="st1" d="M170.92,96.54v-2.73c-0.39,1.23-1.19,2.08-2.39,2.53c-1.2,0.45-2.42,0.68-3.65,0.68
		c-2.66,0-4.84-1.09-6.53-3.26c-1.69-2.18-2.53-4.99-2.53-8.43V46.35c0-3.51,0.84-6.35,2.53-8.53c1.69-2.18,3.86-3.26,6.53-3.26
		c1.23,0,2.45,0.34,3.65,1.02c1.2,0.68,2,1.64,2.39,2.88V20.24h9.94v76.3H170.92z M170.92,47.04c0-0.71-0.1-1.36-0.29-1.95
		c-0.13-0.52-0.39-0.99-0.78-1.41c-0.39-0.42-0.94-0.63-1.66-0.63c-0.72,0-1.23,0.21-1.56,0.63c-0.33,0.42-0.55,0.89-0.68,1.41
		c-0.2,0.65-0.26,1.33-0.2,2.05v37.91c0,0.78,0.1,1.46,0.29,2.05c0.13,0.52,0.39,0.97,0.78,1.36c0.39,0.39,0.94,0.58,1.66,0.58
		c0.71,0,1.23-0.21,1.56-0.63c0.32-0.42,0.55-0.89,0.68-1.41c0.19-0.58,0.26-1.27,0.19-2.05V47.04z"/>
	<path class="st1" d="M206.11,96.74l-0.03-11.29l-5.53-0.52l-2.5,11.05l-10.58-0.99l18.67-84.88l8.15,0.76l1.7,86.78L206.11,96.74z
		 M206.21,50.4l-4.41,24.26l4.56,0.42L206.21,50.4z"/>
	<path class="st1" d="M248.57,84.75c0,3.51-0.84,6.35-2.53,8.53c-1.69,2.18-3.87,3.26-6.53,3.26c-1.24,0-2.45-0.34-3.65-1.03
		c-1.2-0.69-2-1.66-2.39-2.91v12.38h-10.04V35.54h10.04v3.22c0.39-1.23,1.18-2.16,2.39-2.78c1.2-0.62,2.42-0.93,3.65-0.93
		c2.66,0,4.84,1.09,6.53,3.26c1.69,2.18,2.53,4.99,2.53,8.43V84.75z M238.63,47.03c0-0.71-0.1-1.36-0.29-1.94
		c-0.13-0.52-0.39-0.99-0.78-1.41c-0.39-0.42-0.94-0.63-1.66-0.63c-0.72,0-1.24,0.21-1.56,0.63c-0.33,0.42-0.55,0.89-0.68,1.41
		c-0.2,0.65-0.23,1.33-0.1,2.04l-0.1,36.85c0,0.78,0.1,1.46,0.29,2.04c0.13,0.52,0.39,0.97,0.78,1.36c0.39,0.39,0.94,0.58,1.66,0.58
		c0.71,0,1.22-0.21,1.51-0.63c0.29-0.42,0.5-0.89,0.63-1.41c0.13-0.58,0.2-1.26,0.2-2.04L238.63,47.03z"/>
	<path class="st1" d="M279.56,84.75c0,3.51-0.84,6.35-2.53,8.53c-1.69,2.18-3.87,3.26-6.53,3.26c-1.24,0-2.45-0.34-3.65-1.03
		c-1.2-0.69-2-1.66-2.39-2.91v12.38h-10.04V35.54h10.04v3.22c0.39-1.23,1.18-2.16,2.39-2.78c1.2-0.62,2.42-0.93,3.65-0.93
		c2.66,0,4.84,1.09,6.53,3.26c1.69,2.18,2.53,4.99,2.53,8.43V84.75z M269.62,47.03c0-0.71-0.1-1.36-0.29-1.94
		c-0.13-0.52-0.39-0.99-0.78-1.41c-0.39-0.42-0.94-0.63-1.66-0.63c-0.72,0-1.24,0.21-1.56,0.63c-0.33,0.42-0.55,0.89-0.68,1.41
		c-0.2,0.65-0.23,1.33-0.1,2.04l-0.1,36.85c0,0.78,0.1,1.46,0.29,2.04c0.13,0.52,0.39,0.97,0.78,1.36c0.39,0.39,0.94,0.58,1.66,0.58
		c0.71,0,1.22-0.21,1.51-0.63c0.29-0.42,0.5-0.89,0.63-1.41c0.13-0.58,0.2-1.26,0.2-2.04L269.62,47.03z"/>
</g>
</svg>
